# xmcd
# 
# Track frame offsets:
#     182
#     10282
#     22817
#     35767
#     49312
#     60687
#     72962
#     87335
#     97095
#     110757
#     123727
#     135840
#     147412
#     163155
#     174327
#     185897
#     201602
#     212340
# 
# Disc length: 2998
# 
# Revision: 9
# Processed by: cddbd v1.5.2PL0 Copyright (c) Steve Scherf et al.
# Submitted via: fre:ac v1.0.27
# 
DISCID=120bb412
DTITLE=John Lee Hooker - Boogie Man
DYEAR=1995
DGENRE=Jazz
TTITLE0=Dimples
TTITLE1=Mambo chillun
TTITLE2=I'm so excited
TTITLE3=Time is marchin'
TTITLE4=Wheel and deal
TTITLE5=Crawlin' black spider
TTITLE6=I'm so worried baby
TTITLE7=Stop talking
TTITLE8=The road is so rough
TTITLE9=I see you when you're weak
TTITLE10=Crawlin' Kingsnake
TTITLE11=Solid sender
TTITLE12=It serves me right to suffer
TTITLE13=What do you say
TTITLE14=I love you honey
TTITLE15=Thelma
TTITLE16=No shoes
TTITLE17=She shot me down
EXTD=YEAR: 1959
EXTT0=
EXTT1=
EXTT2=
EXTT3=
EXTT4=
EXTT5=
EXTT6=
EXTT7=
EXTT8=
EXTT9=
EXTT10=
EXTT11=
EXTT12=
EXTT13=
EXTT14=
EXTT15=
EXTT16=
EXTT17=
PLAYORDER=
